<?xml version="1.0" encoding="utf-8" ?>
<svg baseProfile="tiny" height="100%" version="1.2" width="100%" xmlns="http://www.w3.org/2000/svg" xmlns:ev="http://www.w3.org/2001/xml-events" xmlns:xlink="http://www.w3.org/1999/xlink"><defs /><polygon fill="black" points="0,0 0,731 1,732 0,733 0,736 1,737 0,738 0,1023 1023,1023 1023,790 1022,789 1023,788 1023,30 1021,32 1020,32 1019,31 1018,32 1017,32 1016,31 1016,30 1017,29 1015,31 1013,31 1012,30 1012,29 1013,28 1015,28 1016,27 1020,27 1021,26 1022,27 1023,27 1023,22 1021,22 1020,21 1021,20 1023,20 1023,15 1022,14 1023,13 1023,0 1007,0 1006,1 1005,0 876,0 875,1 874,0" /></svg>